<svg width="24" height="24" viewBox="0 0 24 24" fill="none" xmlns="http://www.w3.org/2000/svg"><path d="M21.25 9v8c0 1.1-.92 2-2.06 2H4.8c-1.13 0-2.06-.9-2.06-2V9c0-1.1.92-2 2.06-2h2.34c.65 0 1.22-.4 1.43-1 .21-.6.78-1 1.43-1h4c.65 0 1.22.4 1.43 1 .21.6.78 1 1.43 1h2.34c1.13 0 2.05.9 2.05 2z" stroke="#fff" stroke-width="1.5" stroke-linecap="round" stroke-linejoin="round"/><path d="M12 16c1.989 0 3.6-1.567 3.6-3.5S13.99 9 12 9c-1.988 0-3.6 1.567-3.6 3.5S10.012 16 12 16zM5.83 7V6" stroke="#fff" stroke-width="1.5" stroke-linecap="round" stroke-linejoin="round"/></svg>