<svg width="340" height="340" viewBox="0 0 340 340" fill="none" xmlns="http://www.w3.org/2000/svg"><path d="M252.262 321.384l-185.977-9.471c-19.764-1.003-34.95-14.83-33.915-30.874L48.01 37.317c1.018-16.044 17.875-28.235 37.64-27.215l185.977 9.47c19.764 1.005 34.95 14.83 33.914 30.875l-15.64 243.722c-1.017 16.044-17.875 28.235-37.639 27.215z" fill="#EFFAF3"/><mask id="a" style="mask-type:alpha" maskUnits="userSpaceOnUse" x="32" y="9" width="275" height="331"><path d="M254.126 322.637l-137.591-7.671c-71.504 61.859-86.596-10.827-83.523-32.147L47.708 36.975C48.663 20.791 65.55 8.431 85.413 9.381l186.908 8.817c19.863.934 35.18 14.817 34.207 31.001l-14.696 245.844c-.955 16.184-17.843 28.544-37.706 27.594z" fill="#EFFAF3"/></mask><g clip-path="url(#clip0_1974_88853)" mask="url(#a)"><path d="M139.193 125.104s14.75-9.389 17.987 2.765c3.748 14.079-13.222 16.97-13.222 16.97l-4.765-19.735z" fill="#F5C2A2"/><path d="M149.092 136.726a.98.98 0 01-.403.03.99.99 0 01-.557-1.26l3.815-9.997a.959.959 0 011.242-.568c.24.09.434.273.54.507a.981.981 0 01.026.743l-3.816 9.997a.983.983 0 01-.847.548z" fill="#000"/><path d="M150.234 133.649a.96.96 0 01-.199-1.908l4.526-.666a.948.948 0 01.724.168.958.958 0 01.379.644.982.982 0 01-.825 1.11l-4.528.647-.077.005z" fill="#000"/><path d="M224.162 292.446l17.046 67.933s-20.69 3.57-55.86 9.947c-28.348 5.152-84.171 5.357-84.171 5.357l2.079-60.575-.121-9.705-.233-19.274-.121-9.705-.085-6.619-64.132-1.694s11.2-57.268 46.854-81.068c30.556-20.431 84.201-23.981 102.644-16.12 18.443 7.86 34.6 29.684 34.6 29.684l-4.203 51.114-.701 8.775.458 2.278 3.952 19.698 1.994 9.974z" fill="#5FCF86"/><path d="M229.026 119.278s21.044-8.885 19.243-.883c-1.24 5.668-9.743 7.134-9.743 7.134s12.857 31.471 8.795 35.016c-7.699 6.846-23.002-22.986-18.295-41.267z" fill="#F5C2A2"/><path d="M289.778 120.174s-11.936 36.923-29.576 42.486c-11.321 3.559-27.722-17.896-27.722-17.896l17.424-20.992 39.874-3.598z" fill="#F5C2A2"/><path d="M270.736 89.573l-22.676-.37c-2.413-.039-4.398 1.897-4.435 4.325l-.717 47.146c-.037 2.427 1.89 4.427 4.302 4.466l22.676.37c2.413.039 4.399-1.897 4.436-4.324l.716-47.146c.037-2.428-1.889-4.427-4.302-4.467z" fill="#000"/><path d="M264.684 88.631l-22.583-.434c-2.403-.046-4.386 1.876-4.43 4.294l-.85 46.953c-.044 2.418 1.869 4.415 4.272 4.462l22.583.434c2.403.046 4.387-1.876 4.431-4.294l.849-46.953c.044-2.418-1.868-4.415-4.272-4.462z" fill="#fff"/><path d="M224.162 292.446c-26.609 14.543-59.764 19.974-85.265 21.865a326.855 326.855 0 01-35.687.703l-.121-9.704c14.579.531 77.521 1.284 119.04-22.835l2.033 9.971zm-6.406-31.949l.459 2.278c-29.787 14.914-66.063 20.441-91.852 22.353a355.71 355.71 0 01-23.464.982l-.121-9.705c21.761-.253 72.315-2.778 113.57-22.661l1.408 6.753zm-111.726-3.546l.285-9.949c.672-.05 68.274-8.074 102.99-23.431l2.306 9.231c-36.088 15.868-102.832 23.731-105.581 24.149z" fill="#5CB3FF"/><path d="M255.943 136.749a3.45 3.45 0 01-2.411 2.863 3.42 3.42 0 01-1.944.019 3.446 3.446 0 01-1.646-1.044 3.481 3.481 0 01.701-5.199 3.427 3.427 0 011.862-.561 3.657 3.657 0 013.251 2.49c.156.46.219.947.187 1.432z" fill="#000"/><path d="M281.842 117.286s13.171-2.317 8.737-8.205c-4.433-5.888-28.604-7.418-30.742-.052-2.138 7.366 22.005 8.257 22.005 8.257z" fill="#F5C2A2"/><path d="M281.138 128.391s13.17-2.317 8.716-8.223c-4.454-5.906-28.603-7.398-30.723-.053-2.12 7.346 22.007 8.276 22.007 8.276z" fill="#F5C2A2"/><path d="M273.941 138.056a16.37 16.37 0 008.868.08c2.592-.716 4.8-2.182 3.292-5.081-2.981-5.821-23.836-10.802-26.783-4.717-2.212 4.536 8.908 8.16 14.623 9.718z" fill="#F5C2A2"/><path d="M284.938 115.598l-18.538-.297a.978.978 0 01-.677-.293.995.995 0 01-.284-.684 1.01 1.01 0 01.303-.683.999.999 0 01.687-.285l18.443.304a.96.96 0 011.031.895.962.962 0 01-.888 1.037l-.077.006zm-2.3 11.691l-18.539-.296a.962.962 0 01-.67-.295.975.975 0 01-.271-.684.974.974 0 01.293-.675.959.959 0 01.68-.272l18.46.283c.255.01.496.12.672.307a.994.994 0 01.271.691.942.942 0 01-.896.941z" fill="#000"/><path d="M229.027 119.278s16.52-10.259 19.242-.883c1.577 5.381-13.96 11.973-13.96 11.973l-5.282-11.09z" fill="#F5C2A2"/><path d="M143.892 110.107s8.312-18.1 5.33-24.99c-2.982-6.89-11.492 1.26-11.492 1.26s-4.51-16.296-15.088-10.79c-10.578 5.505-20.021 26.313-20.021 26.313s-8.483-5.297-14.487 9.039c-5.166 12.351-1.248 18.063 4.626 25.399 5.872 7.335 19.477 3.587 19.477 3.587l31.655-29.818z" fill="#000"/><path d="M117.988 163.297l2.578 16.788a35.291 35.291 0 0015.056 1.254c10.869-1.583 13.473-8.653 13.473-8.653l-3.212-19.617-27.895 10.228z" fill="#F5C2A2"/><path d="M117.988 163.279s8.544 12.636 20.557 8.772c9.694-3.108 7.475-17.145 7.475-17.145l-28.032 8.373z" fill="#000"/><path d="M143.894 110.107s11.843 29.526 5.386 44.517c-7.015 16.062-22.792 14.201-29.13 10.747a25.835 25.835 0 01-11.435-12.557s-10.125 3.801-15.006-4.21c-5.123-8.421.225-16.764 5.382-18.04 5.157-1.276 5.933-.44 5.933-.44l-3.109-9.386s26.058-40.729 41.979-10.631z" fill="#F5C2A2"/><path d="M105.024 130.144s6.829-.603 13.774-7.704c8.126-8.374 5.251-20.07 5.251-20.07s17.582 7.459 23.201 19.437c5.619 11.978.353-30.392-17.613-26.612-17.966 3.78-40.726 18.679-24.613 34.949zm.434 14.169a.998.998 0 01-.57-.132l-9.204-5.651a.99.99 0 01-.058-1.619.966.966 0 01.718-.179.946.946 0 01.355.13l9.185 5.652a.95.95 0 01.442.599.968.968 0 01-.111.736.926.926 0 01-.757.464z" fill="#000"/><path d="M98.21 146.793a.972.972 0 01-.736-.276.938.938 0 01-.332-.655.954.954 0 01.232-.697l4.173-4.389a.966.966 0 01.661-.337.974.974 0 01.935.529.955.955 0 01-.132 1.059l-4.173 4.389a.96.96 0 01-.629.377zm23.484-13.981a.968.968 0 01-1.002-.761l-1.132-5.103a.983.983 0 01.745-1.163.967.967 0 011.004.4.97.97 0 01.152.35l1.15 5.102a.992.992 0 01-.136.734.98.98 0 01-.608.428l-.173.013zm19.449-4.278a.985.985 0 01-1.021-.759l-1.132-5.103a.983.983 0 01.744-1.163.967.967 0 011.005.399.98.98 0 01.151.351l1.132 5.103a.99.99 0 01-.725 1.161l-.154.011zm-5.294 14.769l-.115.008a.959.959 0 01-.666-.308.977.977 0 01-.258-.692 28.135 28.135 0 00-3.242-13.786.94.94 0 01-.117-.733.951.951 0 01.443-.593.98.98 0 011.318.33 29.22 29.22 0 013.515 14.854.942.942 0 01-.878.92zm6.049-25.996a1.02 1.02 0 01-.589-.131 8.384 8.384 0 00-5.011-.658 1 1 0 01-1.12-.791.958.958 0 01.159-.729.96.96 0 01.626-.398 10.29 10.29 0 016.363.927.972.972 0 01.112 1.548.958.958 0 01-.54.232zm-23.23 4.928a1.002 1.002 0 01-.754-.274.992.992 0 01.013-1.381 10.377 10.377 0 015.983-2.386.956.956 0 01.92.549.971.971 0 01.094.366.939.939 0 01-.232.711.924.924 0 01-.678.309 8.413 8.413 0 00-4.734 1.769.996.996 0 01-.612.337zm-16.062 8.341s4.814 8.93 5.986 8.338c1.173-.592-3.306-15.161-6.918-15.185-3.613-.023.932 6.847.932 6.847z" fill="#000"/><path d="M217.76 260.497s23.44 21.09 41.663 5.148c23.119-20.209 8.599-108.227 8.599-108.227l-30.305-6.651-15.148 49.848-4.809 59.882z" fill="#F5C2A2"/><path d="M217.808 261.465a.966.966 0 01-1.004-.781c-7.228-36.026-16.084-64.064-16.163-64.35a.988.988 0 01.624-1.212.96.96 0 011.205.63c.022.29 8.966 28.476 16.216 64.54a.958.958 0 01-.396 1.001.955.955 0 01-.349.143l-.133.029zM104.4 270.67l-.192.014a.962.962 0 01-.647-.342.978.978 0 01-.222-.701l2.021-22.744a.938.938 0 01.334-.656.937.937 0 01.702-.217.96.96 0 01.646.342.976.976 0 01.223.701l-2.002 22.743a.965.965 0 01-.863.86z" fill="#000"/><path d="M46.617 268.642s-15.542 50.79 6.232 63.202c42.548 24.393 98.874-54.968 98.874-54.968l-12.894-19.482-47.377 12.042-44.835-.794z" fill="#F5C2A2"/><path d="M127.077 259.605s7.491-19.789 9.268-21.611c1.776-1.822 2.013-16.08 6.678-17.222 4.665-1.143 3.64 7.695 3.64 7.695s25.409-10.16 28.813-9.305c3.404.855 1.748 5.348 1.748 5.348s7.136-3.229 9.333-.692c2.196 2.538-3.002 9.257-3.002 9.257s6.46-1.412 4.463 4.468c-1.997 5.879-20.649 16.801-20.649 16.801s-9.357 30.049-29.755 27.85c-20.398-2.198-10.537-22.589-10.537-22.589z" fill="#F5C2A2"/><path d="M78.235 280.05c-.227.048-.46.065-.69.051a2.391 2.391 0 01-1.043-.349 2.424 2.424 0 01-.78-.778 2.322 2.322 0 01-.157-2.126c1.519-3.998 14.85-8.056 17.496-8.815a.938.938 0 011.114.442.99.99 0 01-.181 1.198c-1.181 1.001-10.977 10.023-15.759 10.377zm10.93-8.834c-5.439 1.899-11.252 4.487-11.873 6.262a.39.39 0 00.028.386.498.498 0 00.425.26c2.126.29 7.241-3.373 11.459-6.911l-.039.003zm44.906-88.596a48.27 48.27 0 01-16.738-2.061.94.94 0 01-.562-.479.956.956 0 01-.05-.739.966.966 0 011.229-.615c.258.097 26.066 8.597 33.177-9.551a.963.963 0 011.775-.026.978.978 0 01.017.748c-3.606 9.184-11.455 12.175-18.848 12.723zm23.919 48.058a.982.982 0 01-.999-.722.972.972 0 01.685-1.178l19.308-5.2a.96.96 0 01.742.105.981.981 0 01.45.603.989.989 0 01-.703 1.198l-19.289 5.199-.194-.005zm9.029 8.481a.968.968 0 01-1.13-.781.977.977 0 01.775-1.136l16.612-5.117a.972.972 0 01.75.078.995.995 0 01.155 1.642.975.975 0 01-.339.181l-16.612 5.117-.211.016zm-27.631-2.555a.99.99 0 01-.776-.312.97.97 0 01.053-1.363l7.541-6.443a.96.96 0 011.299.108.973.973 0 01.004 1.311l-7.541 6.442a.86.86 0 01-.58.257zm-5.537-82.254l-.557.041c-4.664-.14-7.413-4.929-7.525-5.134a.997.997 0 01-.069-.928.947.947 0 01.773-.523l13.249-.983a.958.958 0 01.86.403.973.973 0 01.071.947c-.004.214-2.424 5.852-6.802 6.177zm-5.47-4.762a7.113 7.113 0 004.96 2.837c2.245.067 3.941-2.06 4.852-3.565l-9.812.728z" fill="#000"/></g><path d="M232.477 5.078c-19.737 3.403-32.967 22.173-29.572 41.957 4.106 23.929 46.38 55.989 46.38 55.989s29.233-43.935 25.051-68.303c-3.389-19.753-22.152-33.04-41.859-29.643zm10.078 58.724c-12.626 2.176-24.665-6.321-26.842-19.008-2.171-12.655 6.306-24.721 18.963-26.903 12.657-2.182 24.664 6.32 26.841 19.007 2.146 12.692-6.337 24.727-18.962 26.904z" fill="#F26A2B"/><defs><clipPath id="clip0_1974_88853"><path fill="#fff" transform="rotate(-4.241 1119.916 -292.122)" d="M0 0h263.931v257.291H0z"/></clipPath></defs></svg>