<svg width="341" height="340" viewBox="0 0 341 340" fill="none" xmlns="http://www.w3.org/2000/svg"><path d="M251.927 281.785l-159.82 4.896c-16.987.522-31.115-8.939-31.54-21.125l-6.83-185.054c-.458-12.198 12.945-22.476 29.932-23.007l159.784-4.848c16.976-.513 31.115 8.949 31.541 21.125l6.83 185.054c.537 12.201-12.911 22.478-29.897 22.959z" fill="#EFFAF3"/><path d="M126.641 162.068s32.457.448 45.419 13.063c12.963 12.615 2.168 97.493 1.381 98.713-.787 1.22-11.623 6.414-50.863 8.118-39.241 1.703-51.771.931-53.19-.785-1.418-1.717-17.972-96.956-8.934-105.561 9.038-8.605 42.387-14.525 66.187-13.548z" fill="#5FCF86"/><path d="M106.348 146.508l1.78 21.003s4.303 5.727 16.661 5.678c9.201-.027 12.246-2.372 12.246-2.372l-2.176-10.531-2.138-10.271-22.58-2.967-3.793-.54z" fill="#F5C2A2"/><path d="M110.141 147.017c.153.695.416 1.362.779 1.975 5.592 10.099 18.616 11.267 23.941 11.295l-2.138-10.27-22.582-3z" fill="#000"/><path d="M133.393 101.739s13.238 25.431 10.171 40.402c-3.066 14.971-16.638 13.608-24.869 11.321a26.593 26.593 0 01-12.27-6.948 11.34 11.34 0 01-12.804-3.577c-5.484-6.627-2.958-14.836 1.194-16.966 4.151-2.13 9.437.604 9.437.604l-4.504-7.377s14.011-39.788 33.645-17.459z" fill="#F5C2A2"/><path d="M134.429 135.042l-.228.014a.775.775 0 01-.561-.927c1.2-4.943-2.753-9.97-2.811-10.021a.744.744 0 01.117-1.101.741.741 0 01.576-.183.753.753 0 01.525.3c.189.229 4.462 5.651 3.089 11.327a.775.775 0 01-.707.591zm-30.604 3.846a.81.81 0 01-.571-.206l-7.58-7.108a.771.771 0 01-.263-.531.764.764 0 01.195-.559.772.772 0 011.089-.068l7.58 7.098a.74.74 0 01.267.53.764.764 0 01-.199.56.744.744 0 01-.518.284z" fill="#000"/><path d="M96.177 137.329a.788.788 0 01-.803-.606.765.765 0 01.589-.901l4.874-1.059a.771.771 0 01.577.106.75.75 0 01.334.483.771.771 0 01-.313.793.785.785 0 01-.275.119l-4.875 1.048-.108.017z" fill="#000"/><path d="M232.568 211.584l.448-4.743s17.141-14.843 27.931-20.056c4.542-2.186 11.162-1.013 6.049 5.509a26.219 26.219 0 00-4.009 7.569s8.72-3.367 14.575-7.802c3.747-2.826 8.802-13.6 12.296-11.553 5.548 3.253.064 13.813.064 13.813s1.961-13.065 7.534-8.358c5.573 4.707-7.179 30.872-13.618 37.334-6.439 6.463-41.961 15.746-41.961 15.746l-9.309-27.459z" fill="#F5C2A2"/><path d="M270.186 204.917a.762.762 0 01-.845-.675.762.762 0 01.674-.846c7.791-1.252 14.825-8.692 14.897-8.762a.77.77 0 011.348.462.771.771 0 01-.191.559c-.297.325-7.454 7.894-15.819 9.236l-.064.026z" fill="#000"/><path d="M279.874 210.187a.822.822 0 01-.399-.084l-16.351-8.597a.766.766 0 01.713-1.357l15.91 8.35 6.766-5.771a.752.752 0 01.265-.151.776.776 0 01.833.235.764.764 0 01-.084 1.1l-7.171 6.114a.777.777 0 01-.482.161z" fill="#000"/><path d="M249.558 211.803a.795.795 0 01-.336-1.532 35.054 35.054 0 0013.59-9.928.808.808 0 011.343.117.802.802 0 01.068.617.811.811 0 01-.146.281 36.116 36.116 0 01-14.322 10.444l-.197.001z" fill="#000"/><path d="M156.267 166.566s24.707 5.176 34.613 37.991c4.134 13.713 38.323-5.891 38.323-5.891l19.77 43.413s-31.899 49.316-95.567 8.455c-18.283-11.703 2.861-83.968 2.861-83.968z" fill="#5FCF86"/><path d="M120.962 282.139s17.483-1.824 21.283-2.586c3.8-.762 20.822.889 21.239-2.069l-6.656-4.19s17.131.933 22.198-2.118 6.473-4.681 7.486-8.945-9.596-5.419-9.596-5.419 6.561-4.686-2.343-7.785-46.738-6.165-61.739 4.606c-15.002 10.771 8.128 28.506 8.128 28.506z" fill="#F5C2A2"/><path d="M176.994 257.574a.684.684 0 01-.251.015 45.9 45.9 0 00-18.845-.564.773.773 0 01-.796-1.174.753.753 0 01.484-.327 46.85 46.85 0 0119.568.585.764.764 0 01.528.94.749.749 0 01-.688.525z" fill="#000"/><path d="M60.4 175.598s-64.51 41.646-45.56 95.766c13.487 38.543 119.362 16.623 119.362 16.623l-4.102-46.316-57.97-5.42-11.73-60.653z" fill="#5FCF86"/><path d="M62.168 240.056c-3.876.242-7.063-.041-7.915-1.432-.524-.864-.273-1.93.765-3.165 6.471-7.69 23.395.094 24.072.434a.766.766 0 01-.161 1.444 120.23 120.23 0 01-16.76 2.719zm.54-6.412a8.873 8.873 0 00-6.514 2.802c-.53.624-.77 1.142-.635 1.386.998 1.633 11.084.544 20.675-1.476-3.035-1.167-8.713-3.012-13.526-2.712z" fill="#000"/><path d="M135.407 162.955s8.086 22.043 5.805 21.748c-2.281-.296-16.421-11.459-16.421-11.459s-9.745 13.736-12.939 14.034c-3.195.298-4.496-24.586-4.496-24.586s3.205 7.392 15.156 8.353c11.952.961 12.895-8.09 12.895-8.09z" fill="#F26A2B"/><path d="M118.959 115.627a.761.761 0 01-.816-.643.762.762 0 01.58-.862l5.822-1.458a.767.767 0 01.377 1.487l-5.811 1.456-.152.02zm18.274-2.234l-.228.014-3.841-.942a.763.763 0 01-.56-.927.762.762 0 01.926-.561l3.841.941a.779.779 0 01.56.928.761.761 0 01-.698.547zm-.864 10.545a.764.764 0 01-.802-.607l-1.012-4.827a.741.741 0 01.126-.609l1.6-2.211a.767.767 0 111.247.895l-1.409 1.948.947 4.492a.748.748 0 01-.314.787.743.743 0 01-.274.114l-.109.018zm-13.31 1.859a.762.762 0 01-.792-.607l-1.022-4.826a.75.75 0 01.137-.61l1.6-2.212a.772.772 0 011.379.633.764.764 0 01-.131.274l-1.399 1.936.948 4.503a.78.78 0 01-.589.901l-.131.008zm-7.265 111.909l-.152.01c-.262.016-26.543-2.01-36.758-.366a.771.771 0 01-.597-.11.76.76 0 01-.316-.821.76.76 0 01.666-.574c10.41-1.667 36.085.265 37.182.339a.76.76 0 01.666.534.769.769 0 01-.199.78.754.754 0 01-.492.208z" fill="#000"/><path d="M106.172 128.962s6.657-5.415 5.593-12.656c-1.064-7.242-2.821-8.959-2.821-8.959a103.145 103.145 0 0015.883-2.774 73.37 73.37 0 008.48-2.827l2.772 5.888c2.081-.272 4.268-16.206-1.69-21.129-4.183-3.448-19.655 5.372-19.655 5.372s-18.088-2.613-27.333 10.906c-9.245 13.518 3.652 27.363 3.652 27.363s2.54-6.777 15.119-1.184z" fill="#000"/><path d="M123.612 94.78s3.614-13.026-5.691-14.491c-9.305-1.466-15.962 10.436-15.962 10.436s-.666-6.303-7.347-3.72c-6.681 2.583-11.443 23.14-7.964 24.422 3.48 1.282 36.964-16.648 36.964-16.648zm8.879 49.069c-.195.028-.391.04-.588.036-3.472-.286-5.047-3.645-5.111-3.783a.757.757 0 01.043-.714.759.759 0 01.6-.377l9.123-.569a.764.764 0 01.765 1.047c-.066.157-1.631 4.16-4.832 4.36zm-3.667-3.426a4.652 4.652 0 003.2 1.89c1.549.134 2.675-1.261 3.299-2.295l-6.499.405zm48.718 125.912a.833.833 0 01-.421-.094c-4.97-2.753-18.636-.895-18.755-.876a.774.774 0 01-.567-.15.77.77 0 01-.144-1.074.758.758 0 01.507-.295c.577-.036 14.292-1.986 19.739 1.055a.766.766 0 01-.326 1.432l-.033.002z" fill="#000"/><path d="M223.749 256.532l10.696 6.95 48.981-75.524-10.696-6.951-48.981 75.525z" fill="#1A2E35"/><path d="M281.227 225.817l-21.668-10.777-6.407 12.907 21.669 10.777 6.406-12.907z" fill="#1A2E35"/><path d="M288.853 226.346l-14.087-7.007-8.984 18.099 14.088 7.007 8.983-18.099z" fill="#1A2E35"/><path d="M298.902 221.953s-10.254 3.823-17.47 10.279C274.217 238.688 263.677 260 263.677 260s73.042 15.399 73.417 9.851c.375-5.549-38.192-47.898-38.192-47.898z" fill="#1A2E35"/><path d="M173.362 248.097a.756.756 0 01-.794-.64 151.259 151.259 0 00-3.693-17.678.77.77 0 01.136-.564.763.763 0 01.493-.302.77.77 0 01.563.136.767.767 0 01.302.494 152.145 152.145 0 013.693 17.689.743.743 0 01-.357.761.762.762 0 01-.277.1l-.066.004z" fill="#000"/><path d="M231.548 123.764a41.573 41.573 0 01-29.622-4.458 41.639 41.639 0 01-18.954-23.219c-.112-.34-.224-.68-.315-1-.004-.142-.09-.281-.124-.422a37.142 37.142 0 01-.623-2.427 41.687 41.687 0 01-.845-12.61c-.009-.294.042-.589.074-.873a40.897 40.897 0 012.536-10.474c.166-.47.354-.931.551-1.392a41.625 41.625 0 019.848-14.093 41.553 41.553 0 0148.214-6.213c.72.381 1.42.794 2.11 1.217a41.638 41.638 0 0116.004 18.26 41.682 41.682 0 013.104 24.09 41.644 41.644 0 01-10.851 21.725 41.585 41.585 0 01-21.115 11.97l.008-.081z" fill="#FEF7F4" stroke="#5CB3FF" stroke-width="4.396"/><path d="M201.845 94.402a7.127 7.127 0 00-2.593-7.482 7.111 7.111 0 00-10.699 2.589 7.125 7.125 0 001.108 7.841 7.108 7.108 0 008.91 1.387 7.12 7.12 0 003.274-4.335zm46.128-.552a7.115 7.115 0 00-2.82-7.38 7.104 7.104 0 00-7.891-.217 7.12 7.12 0 00-1.376 10.907 7.105 7.105 0 008.944 1.13 7.123 7.123 0 003.143-4.44z" fill="#2F2738"/><path d="M253.391 84.14l.064 8.818.013.412.031.979-5.628.041-13.538.097-10.944.073-3.201.023-2.535.022-.244.008-1.604.05-.255.009-2.093.066-.42.014-3.182.022-3.485.023-4.59.038h-13.561l-1.721.054c-.109-.33-.217-.66-.305-.97-.005-.138-.087-.272-.121-.408a36.302 36.302 0 01-.603-2.353 40.364 40.364 0 01-.819-12.224c-.009-.284.04-.57.071-.845a39.668 39.668 0 012.458-10.153 22.8 22.8 0 01.535-1.35l30.452-.222a10.207 10.207 0 015.005 1.292l-21.535.164 9.285 8.398 27.065-.203 9.28 1.803a9.41 9.41 0 013.463 1.438 9.196 9.196 0 011.621 1.4l-.802.025.027.851.013 2.558.141.142 1.662-.092z" fill="#5CB3FF"/><path d="M230.702 93.19l20.556-.152-2.54-3.84-14.683.114-3.333 3.879z" fill="#2F2738"/><path d="M225.783 91.425l.054 1.713 27.663-.202.013.411-28.074.206-.068-2.135.412.007z" fill="#2F2738"/><path d="M225.352 90.657l5.178-.037-.039-1.244-5.179.038.04 1.243z" fill="#EFFAF3"/><path d="M251.694 81.421l.028 2.724-3.464 2.227-14.683.114-3.496-2.183-.018-2.733 21.633-.148z" fill="#2F2738"/><path d="M220.863 80.813l.027.832 3.806 2.701 5.403-.044 2.674-2.75 16.239-.124 2.558 2.555.152.152 1.673-.053-.023-2.254c-.298-.465-.64-.9-1.02-1.3l-31.489.284z" fill="#fff"/><path d="M238.014 75.936l-27.066.193-9.284-8.398 21.535-.155 14.815 8.36zm-.004-.002l-14.815-8.35 14.815 8.35z" fill="#2F2738"/><path d="M205.876 77.869l.027.832-21.232.164c-.009-.283.041-.57.071-.845l21.134-.151z" fill="#fff"/><path d="M208.12 76.15l-2.227 1.698-21.163.163a39.668 39.668 0 012.458-10.153l10.415-.086a3.16 3.16 0 012.121.805l8.396 7.574z" fill="#2F2738"/><path d="M199.994 74.096l2.056-.007 2.754 2.53-7.342.056a2.576 2.576 0 012.532-2.58z" fill="#5CB3FF"/><path d="M191.095 81.796l3.289-.016-.024-.764-3.29.016.025.764z" fill="#2F2738"/><path d="M192.793 90.896l13.166-.094-.039-1.244-13.166.095.039 1.243zm17.925-7.813l2.996-.016-.011-2.205-3.006.017.021 2.204z" fill="#EFFAF3"/><path d="M223.674 92.394a7.113 7.113 0 01-5.96 7.082 7.101 7.101 0 01-7.901-4.82 3.647 3.647 0 01-.109-.34 6.927 6.927 0 01-.137-.642l-7.587.055-14.026.132-1.76.056c-.005-.137-.087-.272-.121-.408l1.819-.058.978-.03-.032-4.41-.069-8.965.42-.013.059 8.338.043 5.036 12.725-.1 7.488-.052-.024-.773a7.112 7.112 0 017.057-7.163 7.1 7.1 0 016.596 4.346 7.11 7.11 0 01.56 2.718l-.019.01z" fill="#2F2738"/><path d="M219.504 89.44a4.198 4.198 0 00-5.932.04 4.11 4.11 0 00-1.135 2.193l.352-.011c.035-.18.085-.354.15-.525.04-.119.089-.235.146-.347a.537.537 0 01.082-.17c.044-.094.097-.184.158-.27l1.314 1.302-1.829.058c-.053.259-.08.522-.082.787.008.268.036.536.084.8l1.829-.058-.522.527-.768.779.051.067a3.75 3.75 0 001.071 1.044l.227-.243.275-.273.541-.547.256-.253.009.255.05 1.596a4.83 4.83 0 01-.672-.195l-.169-.073-.159-.083-.299-.177-.237.243a4.175 4.175 0 005.318-.55c.237-.238.443-.505.612-.794a4.196 4.196 0 00-.721-5.123zm.282.863c.077.12.146.246.208.375a.584.584 0 01.052.106c.002.06.052.116.074.165.053.104.093.214.118.329l.089.33-1.839.059 1.298-1.364zm-2.451-1.628c.108-.003.208.052.316.078.122.029.241.067.356.116l.149.064c.133.055.26.123.379.204.046.007.088.03.119.065l-1.299 1.325-.02-1.852zm-2.919.553l.125-.072.154-.083a4.3 4.3 0 01.734-.308l.301-.088.058 1.85-1.372-1.299zm4.257 6.431l-.115.063-.154.083-.222.115-.154.064-.368.129-.291.088-.051-1.606-.008-.245.243.247 1.12 1.062zm1.628-2.394a1.272 1.272 0 01-.07.257c-.03.111-.066.22-.107.327-.046.11-.101.21-.137.308l-.196.33-1.324-1.3 1.849-.06s.014.118.014.138h-.029z" fill="#B8AFC4"/><path d="M216.557 91.112a1.318 1.318 0 011.229.807 1.326 1.326 0 01-.277 1.445 1.32 1.32 0 11-1.876-1.857c.244-.247.576-.39.924-.395z" fill="#2F2738"/><path d="M216.56 91.906a.538.538 0 01.386.909.522.522 0 01-.372.16.54.54 0 01-.361-.878.537.537 0 01.327-.19l.02-.001z" fill="#B8AFC4"/><path d="M212.363 92.463a4.153 4.153 0 001.259 2.969c.189.185.394.352.614.5l.246-.253a3.9 3.9 0 01-1.122-1.121l-.062-.106a2.031 2.031 0 01-.168-.328l-.157-.348a4.575 4.575 0 01-.164-.524 3.654 3.654 0 01-.025-.802 3.488 3.488 0 01.072-.797l-.352.012a3.33 3.33 0 00-.141.798z" fill="#fff"/></svg>