<svg width="341" height="340" viewBox="0 0 341 340" fill="none" xmlns="http://www.w3.org/2000/svg">
<path d="M49.2928 95.8437L36.9301 269.024C35.4656 288.755 53.0967 303.788 78.0502 300.97L253.086 279.435C262.796 278.125 271.596 273.1 277.59 265.441C283.585 257.782 286.294 248.102 285.134 238.489L265.012 78.8281C263.803 69.2415 258.79 60.5217 251.075 54.5859C243.361 48.65 233.576 45.984 223.872 47.1742L79.8951 64.8945C58.7264 67.4971 51.6512 72.1667 49.2928 95.8437Z" fill="#EFFAF3"/>
<mask id="mask0_2312_125195" style="mask-type:alpha" maskUnits="userSpaceOnUse" x="18" y="15" width="305" height="287">
<path d="M33.3523 70.2786L18.1906 265.007C16.3945 287.193 38.0175 304.097 68.6208 300.927L283.288 276.713C295.195 275.24 305.988 269.589 313.34 260.977C320.692 252.365 324.014 241.482 322.592 230.672L297.913 51.1459C296.43 40.3665 290.283 30.5618 280.821 23.8873C271.36 17.2129 259.36 14.2152 247.459 15.5535L70.8834 35.4786C44.9219 38.405 36.2447 43.6556 33.3523 70.2786Z" fill="#EFFAF3"/>
</mask>
<g mask="url(#mask0_2312_125195)">
<g clip-path="url(#clip0_2312_125195)">
<path d="M268.109 339.38C267.713 370.19 206.162 466.24 198.04 478.772L197.168 480.132C182.423 484.938 166.891 486.855 151.422 485.777C124.317 484.238 120.104 481.048 120.104 481.048C120.104 481.048 130.303 246.617 141.67 224.918C153.037 203.219 223.556 221.715 223.556 221.715C223.556 221.715 231.797 237.274 241.184 257.631C253.74 284.785 268.342 320.539 268.109 339.38Z" fill="#F26A2B"/>
<path d="M268.108 339.38C267.712 370.19 206.161 466.24 198.039 478.772L204.809 277.871L241.271 257.723C253.739 284.785 268.342 320.539 268.108 339.38Z" fill="#F26A2B"/>
<path d="M197.181 480.853C197.08 480.85 196.98 480.828 196.888 480.786C196.796 480.744 196.714 480.684 196.645 480.61C196.577 480.535 196.525 480.448 196.491 480.352C196.457 480.257 196.443 480.156 196.45 480.055C202.721 403.5 204.183 278.996 204.063 277.733C204.069 277.602 204.105 277.475 204.171 277.361C204.236 277.248 204.328 277.152 204.439 277.082L228.599 263.517C228.778 263.421 228.986 263.398 229.18 263.453C229.375 263.508 229.54 263.636 229.642 263.811C229.736 263.985 229.758 264.189 229.703 264.378C229.648 264.568 229.521 264.728 229.348 264.825L205.492 278.187C205.3 286.345 203.955 405.839 197.737 480.176C197.737 480.335 197.681 480.49 197.58 480.614C197.479 480.737 197.337 480.822 197.181 480.853Z" fill="black"/>
<path d="M143.26 257.996C143.091 257.957 142.941 257.862 142.835 257.725C142.729 257.589 142.673 257.42 142.677 257.247C142.681 257.074 142.745 256.908 142.857 256.776C142.97 256.645 143.124 256.557 143.295 256.526C155.1 254.433 161.685 239.674 161.689 239.524C161.766 239.344 161.911 239.202 162.092 239.128C162.273 239.054 162.476 239.053 162.658 239.127C162.839 239.211 162.982 239.361 163.055 239.547C163.129 239.733 163.129 239.941 163.054 240.126C162.769 240.75 156.088 255.747 143.47 258.001L143.26 257.996Z" fill="black"/>
<path d="M107.352 243.136C106.588 246.329 100.666 251.981 100.666 251.981C100.666 251.981 97.1303 263.332 93.5251 263.607C89.9199 263.882 87.0304 257.962 87.0304 257.962C87.0304 257.962 79.4236 260.064 76.8072 259.102C74.1908 258.14 61.4282 255.048 59.3469 247.917C57.2657 240.786 73.0767 213.76 73.0767 213.76L101.884 215.579C101.884 215.579 108.058 239.912 107.352 243.136Z" fill="#F5C2A2"/>
<path d="M86.9379 258.24L86.9379 258.24L86.9303 258.24C86.8949 258.239 86.8601 258.231 86.828 258.216C86.796 258.201 86.7676 258.179 86.7445 258.152C86.7215 258.125 86.7045 258.093 86.6947 258.059L86.2164 258.197L86.6947 258.059C86.6851 258.026 86.6825 257.991 86.6871 257.957L88.0205 249.607C88.0368 249.542 88.0752 249.486 88.1291 249.448C88.1847 249.408 88.2527 249.39 88.3204 249.397C88.3487 249.401 88.376 249.411 88.4007 249.426L88.6588 248.998L88.4007 249.426C88.4265 249.442 88.4488 249.462 88.4661 249.487C88.4834 249.511 88.4957 249.539 88.5021 249.568C88.5084 249.598 88.5086 249.628 88.5027 249.658L88.5009 249.667L88.4993 249.677L87.1626 258.048L87.1626 258.048L87.1619 258.053C87.1539 258.106 87.1266 258.154 87.0853 258.189C87.0439 258.224 86.9914 258.242 86.9379 258.24Z" fill="black" stroke="black"/>
<path d="M100.572 252.259L100.569 252.259C100.534 252.258 100.5 252.25 100.469 252.236C100.438 252.221 100.41 252.201 100.387 252.175C100.364 252.149 100.347 252.118 100.336 252.085C100.326 252.053 100.322 252.018 100.326 251.984C100.326 251.984 100.326 251.984 100.326 251.983L102.423 232.95L102.423 232.95L102.424 232.945C102.427 232.912 102.437 232.881 102.452 232.851C102.468 232.822 102.489 232.797 102.515 232.776C102.54 232.755 102.57 232.74 102.601 232.73C102.63 232.722 102.66 232.719 102.691 232.721C102.758 232.732 102.818 232.767 102.861 232.82C102.904 232.873 102.926 232.94 102.923 233.008L100.827 252.032L100.827 252.035C100.82 252.098 100.79 252.156 100.743 252.197C100.696 252.239 100.635 252.261 100.572 252.259Z" fill="black" stroke="black"/>
<path d="M167.293 108.516L199.509 110.745L220.7 164.691L219.048 234.843C219.048 234.843 195.523 239.24 177.256 236.86C158.988 234.479 154.193 231.815 154.193 231.815L167.293 108.516Z" fill="white"/>
<path d="M193.629 109.557C193.843 110.26 194.017 110.976 194.148 111.7C194.148 111.7 209.832 129.564 213.671 174.128C216.2 202.996 217.237 229.009 218.097 240.852L230.96 237.134C230.96 237.134 225.777 131.23 220.467 122.402C216.456 115.706 199.593 110.987 193.629 109.557Z" fill="#5FCF86"/>
<path d="M56.5902 216.013L112.292 223.146C112.292 223.146 116.174 202.231 122.604 192.78C124.257 190.276 126.399 188.133 128.901 186.479C131.404 184.826 134.215 183.697 137.165 183.16L135.836 239.605L172.673 240.473L168.512 116.617L168.077 108.355C148.699 107.268 121.677 109.903 97.0177 129.338C58.337 159.667 56.5902 216.013 56.5902 216.013Z" fill="#5FCF86"/>
<path d="M122.585 193.559C122.476 193.584 122.363 193.581 122.255 193.552C120.211 192.483 109.963 187.02 109.813 183.206C109.802 182.758 109.92 182.316 110.152 181.934C110.384 181.551 110.722 181.243 111.124 181.046C111.568 180.77 112.07 180.597 112.59 180.542C113.111 180.487 113.637 180.55 114.13 180.727C118.714 182.185 123.158 192.163 123.357 192.587C123.413 192.728 123.427 192.882 123.397 193.031C123.367 193.179 123.294 193.316 123.188 193.424C123.103 193.488 123.005 193.533 122.901 193.557C122.797 193.58 122.689 193.581 122.585 193.559ZM112.962 181.959C112.576 181.944 112.196 182.05 111.875 182.264C111.717 182.332 111.582 182.443 111.483 182.583C111.384 182.724 111.327 182.889 111.316 183.061C111.27 185.01 116.643 188.618 120.935 191.03C119.243 187.749 116.238 182.907 113.619 182.065L112.962 181.959Z" fill="black"/>
<path d="M230.343 87.5842C230.343 87.5842 214.641 69.209 201.507 61.5175C188.373 53.8259 182.156 54.2197 180.644 56.0147C179.133 57.8096 186.444 64.4337 186.444 64.4337C186.444 64.4337 173.89 57.5961 170.887 61.5766C167.884 65.5571 178.24 72.7931 178.24 72.7931C178.24 72.7931 168.265 69.7674 168.042 74.1435C167.819 78.5195 187.936 90.2167 187.936 90.2167C187.936 90.2167 176.178 87.7791 175.918 91.164C175.658 94.5489 189.826 104.215 196.404 105.03C202.983 105.846 215.414 107.729 215.414 107.729L230.343 87.5842Z" fill="#F5C2A2"/>
<path d="M176.814 50.4404L177.121 50.6869L177.433 50.4457L177.433 50.4456L177.433 50.4456L177.434 50.4446L177.44 50.44L177.466 50.4204C177.489 50.4027 177.525 50.3761 177.572 50.3415C177.665 50.2723 177.805 50.171 177.986 50.0446C178.347 49.7918 178.873 49.4392 179.526 49.0432C180.834 48.2499 182.64 47.289 184.649 46.6044C186.661 45.9187 188.844 45.5212 190.919 45.8203C192.977 46.117 194.953 47.1012 196.579 49.2307C199.798 53.4469 198.321 58.3465 195.871 62.3455C194.656 64.3295 193.228 66.0441 192.099 67.2651C191.536 67.8747 191.049 68.3592 190.705 68.6905C190.532 68.8561 190.395 68.9833 190.302 69.0686C190.256 69.1113 190.22 69.1434 190.196 69.1646L190.181 69.1781L159.526 90.7255C159.483 90.6904 159.434 90.6514 159.382 90.6084C159.104 90.3822 158.707 90.0476 158.228 89.6167C157.271 88.7544 155.995 87.5097 154.72 85.9807C152.156 82.907 149.656 78.7581 149.645 74.2978C149.635 69.8267 151.452 67.6261 153.205 66.5169C154.096 65.9529 154.991 65.6585 155.665 65.5057C156.002 65.4295 156.281 65.3891 156.473 65.3678C156.569 65.3572 156.643 65.3514 156.692 65.3482C156.716 65.3467 156.734 65.3458 156.745 65.3453L156.757 65.3449L156.757 65.3448L156.758 65.3448L156.758 65.3448L156.758 65.3448L157.23 65.3336L157.245 64.8612L157.245 64.8612L157.245 64.861L157.245 64.8605L157.245 64.8561L157.246 64.8363C157.246 64.829 157.247 64.8201 157.247 64.8096C157.248 64.7943 157.249 64.7755 157.25 64.7535C157.254 64.6796 157.261 64.5691 157.273 64.4258C157.295 64.1391 157.336 63.7219 157.407 63.2057C157.549 62.1725 157.814 60.7475 158.301 59.1821C159.278 56.0406 161.131 52.3961 164.627 50.1715L164.64 50.1631L164.652 50.154C166.43 48.8607 168.584 48.1882 170.782 48.2399C172.979 48.2917 175.099 49.0648 176.814 50.4404Z" fill="black" stroke="black"/>
<path d="M167.378 95.9746L168.042 113.606C168.042 113.606 171.434 118.577 181.77 119C189.47 119.332 192.092 117.503 192.092 117.503L190.685 108.467L189.3 99.8219L170.517 96.3786L167.378 95.9746Z" fill="#F5C2A2"/>
<path d="M171.552 98.002L171.549 97.9951L171.545 97.9883C171.409 97.7315 171.293 97.4646 171.199 97.1901L188.859 100.371L190.09 108.05C187.852 107.894 184.419 107.425 181.011 106.1C177.274 104.646 173.611 102.179 171.552 98.002Z" fill="black" stroke="black"/>
<path d="M191.686 59.5758C191.686 59.5758 201.79 81.3302 198.618 93.7693C195.446 106.208 184.151 104.502 177.426 102.273C173.594 101.135 170.142 98.9797 167.436 96.0359C165.531 96.6488 163.481 96.6442 161.578 96.0228C159.676 95.4014 158.018 94.195 156.841 92.5755C152.509 86.8017 154.947 80.0471 158.494 78.4201C159.799 78.0122 161.175 77.8794 162.534 78.0302C163.893 78.181 165.206 78.6121 166.391 79.2963L162.881 72.9717C162.881 72.9717 176.16 40.1244 191.686 59.5758Z" fill="#F5C2A2"/>
<path d="M166.03 88.3316L165.939 88.3239L165.851 88.3488C165.834 88.3535 165.817 88.3555 165.8 88.3547L157.713 82.9413C157.667 82.9029 157.636 82.849 157.626 82.7893C157.615 82.726 157.629 82.6611 157.665 82.6082C157.701 82.5552 157.756 82.518 157.818 82.5042C157.878 82.4911 157.94 82.5003 157.993 82.5301L166.131 87.9359L166.139 87.9411L166.147 87.946C166.173 87.9616 166.195 87.9822 166.212 88.0067C166.229 88.0314 166.242 88.0592 166.248 88.0884C166.254 88.1178 166.254 88.1481 166.248 88.1775C166.243 88.2039 166.233 88.2291 166.218 88.2519C166.197 88.2783 166.169 88.2993 166.138 88.3133C166.104 88.3285 166.067 88.3348 166.03 88.3316Z" fill="black" stroke="black"/>
<path d="M158.677 88.028L158.685 88.0257L158.694 88.0231L163.852 86.4661C163.92 86.4483 163.992 86.4566 164.054 86.4894C164.113 86.5209 164.159 86.5726 164.184 86.635C164.199 86.7003 164.19 86.769 164.158 86.8284C164.126 86.8896 164.072 86.9365 164.007 86.9602L158.832 88.4828L158.701 88.5169C158.656 88.5098 158.613 88.4903 158.578 88.4601C158.532 88.4204 158.501 88.365 158.493 88.3043C158.484 88.2437 158.498 88.182 158.532 88.1311C158.566 88.0801 158.618 88.0435 158.677 88.028Z" fill="black" stroke="black"/>
<path d="M190.716 87.2227L190.287 87.4801L190.716 87.2227C190.699 87.1943 190.688 87.1629 190.683 87.1303C190.678 87.0983 190.68 87.0657 190.687 87.0345C191.204 85.102 191.293 83.0799 190.947 81.1095C190.601 79.1378 189.828 77.2657 188.683 75.6243L188.663 75.5951L188.638 75.569C188.594 75.5212 188.569 75.4577 188.571 75.3922C188.573 75.3267 188.6 75.2645 188.647 75.2188L188.647 75.2189L188.654 75.2112C188.675 75.1898 188.7 75.1729 188.728 75.1617C188.756 75.1504 188.786 75.145 188.816 75.1457C188.846 75.1464 188.875 75.1532 188.902 75.1658C188.924 75.1758 188.944 75.1892 188.961 75.2055C190.18 76.8934 191.005 78.8334 191.375 80.8828C191.748 82.9429 191.652 85.0605 191.094 87.0783L191.09 87.0914L191.087 87.1048C191.073 87.1711 191.035 87.2297 190.98 87.2699C190.937 87.302 190.886 87.3207 190.833 87.3242C190.815 87.3166 190.798 87.3069 190.782 87.2952C190.755 87.2758 190.733 87.2512 190.716 87.2227Z" fill="black" stroke="black"/>
<path d="M193.071 71.8111L193.067 71.7966L193.061 71.7825C193.05 71.7542 193.046 71.7238 193.047 71.6931C193.049 71.6626 193.056 71.6328 193.07 71.6055C193.083 71.5783 193.102 71.5542 193.126 71.5347C193.149 71.5151 193.176 71.5007 193.206 71.4923L193.226 71.4864L193.245 71.4789C193.274 71.468 193.304 71.4632 193.334 71.4646C193.365 71.4661 193.394 71.4738 193.422 71.4874L193.645 71.0398L193.422 71.4874C193.449 71.5009 193.473 71.5199 193.492 71.5434C193.512 71.5667 193.526 71.5939 193.535 71.6232L193.535 71.6232L193.538 71.6334L194.793 75.6542L194.793 75.6542L194.796 75.6639C194.817 75.7268 194.812 75.7956 194.782 75.8549C194.759 75.9019 194.722 75.9399 194.676 75.9641L194.55 75.9769C194.504 75.9706 194.459 75.9525 194.421 75.924L194.122 76.325L194.421 75.924C194.377 75.8912 194.343 75.8461 194.325 75.7945L193.071 71.8111Z" fill="black" stroke="black"/>
<path d="M183.195 76.4711L183.191 76.4553L183.186 76.4397L181.93 72.4489L181.93 72.4489L181.927 72.4403C181.906 72.3774 181.911 72.3087 181.941 72.2493C181.968 72.1938 182.015 72.1508 182.073 72.1282C182.138 72.1134 182.206 72.1224 182.265 72.1538C182.327 72.1867 182.375 72.2419 182.398 72.3083L183.649 76.2832C183.666 76.3506 183.657 76.422 183.625 76.4835C183.598 76.5343 183.556 76.5752 183.506 76.6012L183.365 76.6154C183.328 76.6128 183.292 76.5992 183.263 76.5761C183.229 76.5498 183.205 76.5129 183.195 76.4711Z" fill="black" stroke="black"/>
<path d="M193.405 63.2568C192.769 62.556 192.01 61.972 191.163 61.5349C189.957 60.9125 188.612 60.6088 187.255 60.6526L187.255 60.6526L187.25 60.6528C185.877 60.7102 184.53 61.0502 183.294 61.6515C182.058 62.2529 180.959 63.1026 180.066 64.1478L179.89 64.3529L179.965 64.612C180.536 66.5781 180.511 68.6692 179.895 70.6215C179.279 72.5737 178.098 74.2994 176.503 75.5809L176.503 75.5808L176.498 75.5845C173.678 77.9042 170.068 79.0355 166.43 78.7412L162.266 77.4236L159.109 71.8179L170.852 58.1173L186.376 49.1368L194.481 55.9269L193.405 63.2568Z" fill="black" stroke="black"/>
<path d="M182.235 119.641C176.929 119.358 171.835 117.458 167.639 114.196C167.505 114.053 167.432 113.862 167.437 113.666C167.442 113.47 167.523 113.283 167.663 113.146C167.732 113.076 167.815 113.021 167.906 112.984C167.997 112.947 168.095 112.929 168.193 112.931C168.292 112.934 168.388 112.956 168.478 112.997C168.567 113.039 168.647 113.098 168.713 113.171C168.713 113.171 180.01 122.44 192.072 115.792C192.244 115.702 192.443 115.679 192.63 115.728C192.817 115.777 192.98 115.894 193.086 116.056C193.182 116.234 193.204 116.442 193.149 116.637C193.094 116.832 192.966 116.997 192.791 117.099C189.572 118.899 185.92 119.778 182.235 119.641Z" fill="white"/>
<path d="M179.614 67.3642L179.606 67.3418L179.596 67.3202C179.585 67.2959 179.578 67.2693 179.578 67.2421C179.578 67.2149 179.583 67.1881 179.594 67.1634L179.135 66.9645L179.594 67.1634C179.604 67.1386 179.62 67.1164 179.64 67.0983C179.66 67.0803 179.684 67.0666 179.709 67.0583L179.725 67.0532L179.741 67.0471L183.578 65.5201C183.637 65.4995 183.701 65.5019 183.759 65.5268C183.818 65.5524 183.865 65.5997 183.89 65.6591L183.893 65.6669L183.896 65.6745C183.909 65.7024 183.916 65.7326 183.917 65.7632C183.917 65.7938 183.911 65.8242 183.899 65.8525C183.887 65.8808 183.87 65.9061 183.848 65.9271C183.826 65.948 183.799 65.9641 183.77 65.9743L183.761 65.9775L183.753 65.981L179.951 67.494L179.797 67.5243C179.763 67.517 179.73 67.5025 179.702 67.4816C179.662 67.4521 179.631 67.4113 179.614 67.3642Z" fill="black" stroke="black"/>
<path d="M190.459 68.4482L190.438 68.4436L190.416 68.441C190.382 68.4368 190.349 68.4256 190.319 68.408C190.289 68.3905 190.264 68.3669 190.243 68.3387C190.223 68.3105 190.209 68.2785 190.202 68.2446C190.195 68.2108 190.195 68.1758 190.202 68.1418C190.209 68.1076 190.223 68.0756 190.243 68.0475C190.263 68.0195 190.289 67.9957 190.318 67.9779C190.348 67.9602 190.381 67.9489 190.415 67.9446C190.45 67.9404 190.484 67.9433 190.517 67.9531L190.537 67.9591L190.558 67.9634L194.914 68.8761C194.914 68.8761 194.914 68.8761 194.914 68.8761C194.978 68.8899 195.035 68.9284 195.071 68.9835C195.106 69.0377 195.119 69.1035 195.107 69.1671C195.093 69.2281 195.059 69.2826 195.01 69.3217C194.97 69.3535 194.922 69.3737 194.873 69.3805L190.459 68.4482Z" fill="black" stroke="black"/>
<path d="M187.186 90.8385C187.172 90.8502 187.156 90.8602 187.14 90.8684L187.022 90.8657L186.882 90.8624L183.033 89.6545C182.969 89.6298 182.917 89.583 182.886 89.5226C182.855 89.4627 182.847 89.3937 182.862 89.3283C182.884 89.2689 182.927 89.2198 182.983 89.1908C183.041 89.1603 183.11 89.1545 183.173 89.1745L183.174 89.175L187.102 90.4074C187.102 90.4074 187.103 90.4075 187.103 90.4076C187.16 90.4258 187.208 90.464 187.24 90.5151L187.666 90.2543L187.24 90.5151C187.271 90.5664 187.283 90.6274 187.273 90.6869C187.263 90.7464 187.232 90.8002 187.186 90.8385Z" fill="black" stroke="black"/>
<path d="M202.284 73.8144L202.276 73.8566L202.275 73.8968C202.275 73.8966 202.275 73.8965 202.275 73.8965C202.275 73.8965 202.274 73.9053 202.272 73.9319C202.272 73.9385 202.271 73.9458 202.27 73.9538C202.268 73.9798 202.265 74.0127 202.262 74.0499C202.254 74.1484 202.245 74.2821 202.238 74.446C202.226 74.7738 202.226 75.2209 202.276 75.755C202.375 76.8229 202.669 78.2414 203.451 79.7494C205.024 82.7854 208.515 86.0816 216.052 87.6773C216.117 87.6955 216.174 87.7367 216.211 87.7934C216.247 87.8485 216.262 87.9145 216.255 87.9797C216.239 88.0388 216.204 88.0912 216.155 88.1286C216.111 88.1625 216.058 88.1824 216.004 88.186C207.944 86.5136 204.438 82.8742 202.915 79.7184C201.498 76.7836 201.752 74.1999 201.804 73.7239L201.804 73.7239C201.816 73.6593 201.852 73.602 201.905 73.564C201.957 73.5268 202.022 73.5111 202.085 73.5201C202.117 73.526 202.147 73.5379 202.174 73.5552L202.435 73.1458L202.174 73.5552C202.202 73.5731 202.226 73.5964 202.245 73.624C202.264 73.6515 202.277 73.6826 202.284 73.7152C202.291 73.7478 202.291 73.7816 202.284 73.8144Z" fill="black" stroke="black"/>
<path d="M208.296 110.742L233.296 80.6316C233.296 80.6316 299.318 118.197 287.511 154.74C275.704 191.283 217.522 183.791 217.522 183.791L205.667 120.493L208.296 110.742Z" fill="#5FCF86"/>
<path d="M225.029 165.543C224.849 165.528 224.679 165.453 224.546 165.331C224.413 165.208 224.325 165.044 224.296 164.865C221.598 135.513 209.42 117.791 209.303 117.638C209.246 117.558 209.205 117.467 209.183 117.371C209.161 117.275 209.158 117.176 209.174 117.079C209.19 116.982 209.226 116.889 209.278 116.805C209.33 116.722 209.398 116.649 209.478 116.592C209.557 116.53 209.647 116.486 209.744 116.462C209.84 116.437 209.941 116.433 210.039 116.449C210.137 116.466 210.231 116.502 210.315 116.557C210.398 116.612 210.469 116.683 210.524 116.766C219.318 131.324 224.552 147.755 225.798 164.721C225.809 164.819 225.799 164.919 225.77 165.015C225.742 165.11 225.694 165.198 225.631 165.275C225.568 165.352 225.49 165.415 225.402 165.461C225.314 165.508 225.218 165.536 225.119 165.545L225.029 165.543Z" fill="black"/>
<path d="M235.116 166.38L234.486 166.366C229.562 165.349 223.559 154.105 222.81 152.797C222.718 152.669 222.67 152.515 222.674 152.358C222.678 152.201 222.733 152.05 222.83 151.927C222.938 151.817 223.076 151.743 223.227 151.714C223.378 151.685 223.534 151.704 223.674 151.767C225.096 152.49 237.543 158.815 238.036 163.328C238.088 163.779 238.021 164.234 237.843 164.651C237.665 165.068 237.382 165.431 237.021 165.705C236.476 166.132 235.807 166.369 235.116 166.38ZM225.447 154.149C227.753 158.105 231.839 164.173 234.793 164.782C235.05 164.841 235.318 164.84 235.574 164.778C235.83 164.716 236.069 164.596 236.271 164.427C236.44 164.314 236.576 164.159 236.664 163.976C236.753 163.794 236.791 163.591 236.775 163.389C236.621 161.044 230.476 157.088 225.566 154.212L225.447 154.149Z" fill="black"/>
<path d="M151.913 173.244C150.799 173.218 149.701 172.973 148.682 172.521C147.664 172.07 146.744 171.422 145.977 170.613C139.415 164.007 139.992 147.125 140.008 146.465C140.012 146.272 140.091 146.087 140.229 145.951C140.366 145.814 140.551 145.736 140.745 145.733L163.371 145.125C163.466 145.119 163.561 145.132 163.65 145.163C163.74 145.194 163.823 145.242 163.894 145.305C163.965 145.368 164.023 145.445 164.064 145.53C164.105 145.616 164.129 145.708 164.135 145.803C164.118 146.523 165.283 163.266 158.94 170.288C158.137 171.212 157.151 171.959 156.044 172.48C154.937 173.002 153.734 173.287 152.511 173.318L151.913 173.244ZM141.431 147.159C141.354 150.398 141.601 164.118 146.901 169.555C147.592 170.288 148.432 170.864 149.365 171.243C150.298 171.622 151.302 171.796 152.308 171.753C153.331 171.733 154.339 171.497 155.265 171.058C156.19 170.619 157.012 169.989 157.676 169.208C162.882 163.329 162.66 149.85 162.527 146.576L141.431 147.159Z" fill="black"/>
<path d="M213.474 122.598C213.326 122.637 213.17 122.633 213.025 122.587C212.947 122.526 212.883 122.451 212.835 122.365C212.786 122.279 212.756 122.184 212.744 122.086C212.732 121.989 212.74 121.889 212.767 121.795C212.793 121.7 212.839 121.611 212.899 121.534L241.302 85.7417C241.425 85.5854 241.605 85.4844 241.803 85.4609C242 85.4374 242.199 85.4933 242.355 85.6164C242.511 85.7395 242.612 85.9196 242.636 86.1171C242.659 86.3146 242.603 86.5134 242.48 86.6697L214.077 122.462C213.992 122.526 213.894 122.571 213.79 122.595C213.686 122.618 213.579 122.619 213.474 122.598Z" fill="black"/>
<path d="M114.151 215.508L57.3779 206.728C57.206 206.674 57.0595 206.559 56.9654 206.405C56.8712 206.251 56.8357 206.068 56.8654 205.89C56.8951 205.712 56.9881 205.551 57.1272 205.436C57.2662 205.32 57.442 205.259 57.6224 205.264L114.215 214.039C114.314 214.052 114.409 214.085 114.494 214.136C114.58 214.186 114.655 214.253 114.714 214.332C114.774 214.412 114.817 214.503 114.841 214.599C114.865 214.696 114.87 214.796 114.855 214.894C114.82 215.059 114.732 215.207 114.605 215.318C114.478 215.429 114.319 215.495 114.151 215.508Z" fill="black"/>
</g>
</g>
<path d="M94.078 101.485C111.218 101.477 125.105 87.5756 125.097 70.4358C125.089 53.2961 111.187 39.4084 94.0474 39.4168C76.9077 39.4253 63.02 53.3266 63.0285 70.4664C63.0369 87.6061 76.9383 101.494 94.078 101.485Z" fill="#5CB3FF"/>
<path d="M102.165 56.54L97.7819 58.3794C97.8389 57.6375 97.7533 56.8633 97.4445 56.1275C96.4329 53.7166 93.6549 52.5808 91.2283 53.5991C89.9446 54.1377 89.0383 55.1809 88.6077 56.3926C88.5345 56.3497 88.4835 56.3159 88.4102 56.2729C87.2389 55.8071 85.9525 55.8129 84.7784 56.3056C82.3519 57.3238 81.2161 60.1019 82.2278 62.5128C82.53 63.2329 83.0069 63.8429 83.5984 64.3311L79.0898 66.2231C76.8198 67.1756 75.7476 69.7981 76.7002 72.0681L78.8549 77.2029C79.1242 77.8448 79.8799 78.1537 80.5217 77.8844L80.96 77.7004L85.0987 87.5632C86.1563 90.0836 89.0743 91.2895 91.6104 90.2253L97.6846 87.6765C97.7472 87.6502 97.8073 87.6618 97.8543 87.6421L104.304 84.9355C104.351 84.9158 104.385 84.8648 104.448 84.8385L110.522 82.2897C113.058 81.2255 114.242 78.2984 113.184 75.7779L109.045 65.9152L109.484 65.7313C110.125 65.462 110.434 64.7063 110.165 64.0645L108.01 58.9296C107.058 56.6596 104.435 55.5875 102.165 56.54ZM89.6182 71.3055L80.7105 75.0434L79.0484 71.0827C78.6346 70.0964 79.1045 68.9786 80.0751 68.5713L87.2139 65.5758L89.6182 71.3055ZM85.7753 62.718C85.2263 62.5065 84.806 62.0753 84.5761 61.5274C84.1096 60.4159 84.6366 59.1269 85.7638 58.6539C86.3117 58.4239 86.8981 58.4172 87.4315 58.6353C87.9871 58.8624 88.4008 59.278 88.6307 59.8259C88.8607 60.3739 88.8739 60.9759 88.6402 61.5158C88.4222 62.0492 88.0132 62.4786 87.4339 62.7217C86.8794 62.9359 86.2931 62.9426 85.7753 62.718ZM102.132 83.0487L98.0299 84.7698L89.5621 64.5904L93.6638 62.8692L102.132 83.0487ZM93.9151 60.002C92.8036 60.4684 91.5146 59.9414 91.0416 58.8143C90.5752 57.7028 91.1022 56.4137 92.2137 55.9473C93.3409 55.4743 94.6299 56.0013 95.0963 57.1128C95.5693 58.24 95.0423 59.529 93.9151 60.002ZM107.324 63.8757L98.4164 67.6136L96.012 61.8839L103.151 58.8883C104.121 58.481 105.248 58.9287 105.662 59.915L107.324 63.8757Z" fill="white"/>
<defs>
<clipPath id="clip0_2312_125195">
<rect width="230.644" height="514.513" fill="white" transform="translate(60.6826 42.2065) rotate(1.34901)"/>
</clipPath>
</defs>
</svg>
