<svg width="16" height="16" viewBox="0 0 16 16" fill="none" xmlns="http://www.w3.org/2000/svg"><path d="M11.333 14.666H4.666a.504.504 0 01-.5-.5c0-.273.227-.5.5-.5h6.667c.274 0 .5.227.5.5s-.226.5-.5.5zM13.567 3.68L10.9 5.585a.671.671 0 01-1.013-.307l-1.26-3.36a.664.664 0 00-1.247 0L6.113 5.273a.657.657 0 01-1.006.306L2.44 3.673c-.533-.374-1.24.153-1.02.773l2.773 7.767c.094.266.347.44.627.44h6.354a.67.67 0 00.626-.44l2.773-7.767c.227-.62-.48-1.147-1.006-.767zm-3.9 6.153H6.333a.504.504 0 01-.5-.5c0-.274.227-.5.5-.5h3.334c.273 0 .5.226.5.5 0 .273-.227.5-.5.5z" fill="#fff"/></svg>