<svg width="203" height="215" viewBox="0 0 203 215" fill="none" xmlns="http://www.w3.org/2000/svg">
<path d="M9.86583 51.8632L0.0673019 189.366C-1.09345 205.032 12.8808 216.968 32.6587 214.73L171.391 197.631C179.086 196.592 186.061 192.601 190.813 186.52C195.564 180.439 197.711 172.754 196.792 165.121L180.843 38.3531C179.885 30.7415 175.911 23.8182 169.797 19.1052C163.682 14.3923 155.927 12.2755 148.236 13.2205L34.121 27.2901C17.3429 29.3565 11.7351 33.0641 9.86583 51.8632Z" fill="#EFFAF3"/>
<mask id="mask0_5258_146236" style="mask-type:alpha" maskUnits="userSpaceOnUse" x="0" y="13" width="197" height="202">
<path d="M9.86583 51.8632L0.0673019 189.366C-1.09345 205.032 12.8808 216.968 32.6587 214.73L171.391 197.631C179.086 196.592 186.061 192.601 190.813 186.52C195.564 180.439 197.711 172.754 196.792 165.121L180.843 38.3531C179.885 30.7415 175.911 23.8182 169.797 19.1052C163.682 14.3923 155.927 12.2755 148.236 13.2205L34.121 27.2901C17.3429 29.3565 11.7351 33.0641 9.86583 51.8632Z" fill="#EFFAF3"/>
</mask>
<g mask="url(#mask0_5258_146236)">
<path d="M136.788 111.002L133.424 111.142L129.876 125.574L141.498 125.095C145.439 124.936 148.495 121.616 148.336 117.676C148.24 115.415 147.105 113.43 145.403 112.198C144.15 111.279 142.585 110.771 140.916 110.838L136.788 111.002Z" fill="#F5C2A2"/>
<path d="M125.529 111.469L122.763 122.722L124.188 125.814L126.048 125.731L129.876 125.574L133.424 111.142L127.108 111.411L125.529 111.469Z" fill="#2F2738"/>
<path d="M132.677 127.74L129.313 127.879L125.765 142.311L137.387 141.833C141.327 141.673 144.384 138.353 144.224 134.413C144.129 132.153 142.994 130.167 141.292 128.935C140.039 128.016 138.473 127.508 136.804 127.576L132.677 127.74Z" fill="#FF8A98"/>
<path d="M121.417 128.206L118.651 139.46L120.077 142.551L121.936 142.468L125.764 142.311L129.313 127.879L123 128.137L121.417 128.206Z" fill="#2F2738"/>
<path d="M132.681 127.728L129.317 127.868L125.769 142.3L137.391 141.821C141.321 141.658 144.388 138.342 144.214 134.409C144.118 132.149 142.984 130.164 141.282 128.932C140.029 128.013 138.463 127.505 136.794 127.572L132.681 127.728Z" fill="#F5C2A2"/>
<path d="M128.558 144.462L125.194 144.602L121.645 159.034L133.268 158.555C137.208 158.396 140.265 155.076 140.105 151.135C140.009 148.875 138.875 146.89 137.173 145.658C135.92 144.739 134.354 144.231 132.685 144.298L128.558 144.462Z" fill="#F5C2A2"/>
<path d="M117.309 144.931L114.544 156.185L115.958 159.273L117.828 159.194L121.645 159.033L125.194 144.601L118.889 144.873L117.309 144.931Z" fill="#2F2738"/>
<path d="M89.7064 43.8231L137.127 55.4804C140.468 56.3004 142.502 59.6668 141.686 62.9961L120.029 151.1L115.783 168.353C114.963 171.694 111.597 173.728 108.268 172.912L60.847 161.254C57.5177 160.438 55.4832 157.071 56.2998 153.742L60.545 136.489L82.202 48.3852C83.0107 45.0411 86.3771 43.0065 89.7064 43.8231Z" fill="white"/>
<path d="M141.683 63.0077L120.026 151.111L60.5344 136.486L82.1913 48.382C83.0114 45.0414 86.3777 43.0068 89.707 43.8234L137.128 55.4807C140.468 56.3007 142.503 59.6671 141.683 63.0077Z" fill="#E4ECF9"/>
<path d="M120.025 151.111L115.779 168.364C114.959 171.705 111.593 173.739 108.264 172.923L60.843 161.266C57.5137 160.449 55.4792 157.083 56.2958 153.753L60.541 136.5L120.025 151.111Z" fill="white"/>
<path d="M66.272 144.439L111.279 155.498L108.779 165.675L63.7714 154.616L66.272 144.439Z" fill="#5CB3FF"/>
<path d="M89.9745 42.7531L137.395 54.4104C141.312 55.3711 143.716 59.3471 142.755 63.264L116.861 168.636C115.9 172.552 111.924 174.956 108.008 173.996L60.5868 162.339C60.4475 162.308 60.3118 162.266 60.176 162.224C58.3734 161.68 56.9344 160.481 56.0311 158.95C55.0965 157.361 54.7532 155.421 55.2266 153.485L81.121 48.1134C82.0816 44.1965 86.0577 41.7925 89.9745 42.7531ZM114.71 168.096L140.605 62.7243C141.274 59.9938 139.601 57.2223 136.859 56.5499L89.4383 44.8926C86.6965 44.2201 83.9251 45.893 83.2526 48.6347L57.3582 154.006C56.6857 156.748 58.3586 159.52 61.1004 160.192L108.521 171.849C111.263 172.522 114.038 170.838 114.71 168.096Z" fill="#2F2738"/>
<path d="M99.7654 112.355C99.4695 113.355 98.8098 114.167 97.9711 114.677C97.0583 115.225 95.9429 115.426 94.8471 115.163L90.898 114.266L91.8412 110.406L99.7654 112.355Z" fill="white"/>
<path d="M53.9872 194.33L12.2085 184.067L23.4584 159.012C23.4767 158.993 23.5028 158.988 23.5176 158.981L48.3468 103.529L70.0539 93.1385L64.7694 114.644L71.552 110.132C74.8402 107.949 78.888 107.24 82.7143 108.173L91.8397 110.406L90.8965 114.266L94.8456 115.162C95.9379 115.438 97.0568 115.225 97.9696 114.676C98.8083 114.167 99.468 113.354 99.7639 112.355L104.464 113.508L103.808 116.156C103.397 117.85 102.577 119.345 101.492 120.571C99.4057 122.914 96.2932 124.246 92.9879 123.995L79.5113 122.972L69.306 132.512L63.349 156.759C62.8581 158.752 61.8164 160.562 60.3649 161.973C60.2917 162.049 60.2072 162.122 60.1227 162.195C60.1341 162.199 60.1567 162.206 60.168 162.209C60.3038 162.251 60.4395 162.293 60.5788 162.324L80.9203 167.323L77.0087 169.599L57.2474 181.073L53.9872 194.33Z" fill="#F5C2A2"/>
<path d="M64.7698 114.644L55.5552 120.773L53.7973 109.883L54.675 106.275L64.7698 114.644Z" fill="#2F2738"/>
<path d="M56.6534 164.607L77.0062 169.61L82.293 166.532L60.1202 162.207C59.614 162.682 59.0652 163.095 58.4782 163.472L56.9896 164.401L56.6534 164.607Z" fill="#2F2738"/>
<path d="M47.468 178.678L57.2422 181.08L56.7449 183.104L46.9707 180.702L47.468 178.678Z" fill="#2F2738"/>
<path d="M-3.3069 217.447L6.26046 178.527C7.10762 175.058 9.76934 172.335 13.2054 171.4L18.5361 169.947L68.577 204.359L45.3681 229.417L-3.3069 217.447Z" fill="#F26524"/>
<rect x="85.0078" y="58.3691" width="49.3487" height="31.1719" rx="4" transform="rotate(13.6478 85.0078 58.3691)" fill="#9A9A9A" fill-opacity="0.7"/>
<rect x="88.0586" y="63.6807" width="8.43693" height="5.05353" transform="rotate(13.6478 88.0586 63.6807)" fill="#E4ECF9"/>
<path d="M84.6816 77.5947L124.035 87.1502L123.439 89.6056L84.0854 80.0501L84.6816 77.5947Z" fill="#E4ECF9"/>
<path d="M83.2891 83.3242L101.326 87.7038L100.73 90.1592L82.6929 85.7796L83.2891 83.3242Z" fill="#E4ECF9"/>
</g>
<g clip-path="url(#clip0_5258_146236)">
<path d="M167.461 76.661C179.342 80.9063 192.416 74.7157 196.661 62.8339C200.907 50.9521 194.716 37.8784 182.834 33.6331C170.952 29.3878 157.879 35.5784 153.633 47.4602C149.388 59.342 155.579 72.4156 167.461 76.661Z" fill="#5FCF86"/>
<path d="M181.785 55.487L184.492 57.589C185.965 58.733 186.233 60.8608 185.089 62.334C183.945 63.8072 181.817 64.0748 180.344 62.9308L173.852 57.8898C172.379 56.7458 172.111 54.6181 173.255 53.1449" stroke="white" stroke-width="3" stroke-linecap="round" stroke-linejoin="round"/>
<path d="M169.036 54.151L166.329 52.049C164.856 50.905 164.588 48.7772 165.732 47.304C166.876 45.8308 169.004 45.5632 170.477 46.7072L176.969 51.7482C178.442 52.8922 178.71 55.02 177.566 56.4932" stroke="white" stroke-width="3" stroke-linecap="round" stroke-linejoin="round"/>
</g>
<defs>
<clipPath id="clip0_5258_146236">
<rect width="45.7218" height="45.7218" fill="white" transform="translate(192.146 27.7021) rotate(76.7716)"/>
</clipPath>
</defs>
</svg>
